<mxfile host="Electron" modified="2023-10-22T05:02:43.910Z" agent="Mozilla/5.0 (X11; Linux x86_64) AppleWebKit/537.36 (KHTML, like Gecko) draw.io/21.2.1 Chrome/112.0.5615.87 Electron/24.1.2 Safari/537.36" etag="4gtHe6IkbrQDfVSCr3vu" version="21.2.1" type="device">
  <diagram name="relayserver界面" id="E4rSOSAiFKWUduV70A9F">
    <mxGraphModel dx="973" dy="1647" grid="1" gridSize="10" guides="1" tooltips="1" connect="1" arrows="1" fold="1" page="1" pageScale="1" pageWidth="850" pageHeight="1100" math="0" shadow="0">
      <root>
        <mxCell id="0" />
        <mxCell id="1" parent="0" />
        <mxCell id="56Pj80W0wNVNFjq7xBDU-18" value="" style="rounded=0;whiteSpace=wrap;html=1;" vertex="1" parent="1">
          <mxGeometry x="10" y="30" width="480" height="350" as="geometry" />
        </mxCell>
        <mxCell id="56Pj80W0wNVNFjq7xBDU-4" value="输入硬件钱包地址" style="html=1;shadow=0;dashed=0;shape=mxgraph.bootstrap.rrect;rSize=5;strokeColor=#CED4DA;html=1;whiteSpace=wrap;fillColor=#FFFFFF;fontColor=#7D868C;align=left;spacingLeft=0;spacing=15;fontSize=14;" vertex="1" parent="1">
          <mxGeometry x="25" y="90" width="455" height="40" as="geometry" />
        </mxCell>
        <mxCell id="56Pj80W0wNVNFjq7xBDU-5" value="连接硬件钱包" style="html=1;shadow=0;dashed=0;shape=mxgraph.bootstrap.rightButton;strokeColor=#6C757D;gradientColor=inherit;fontColor=inherit;fillColor=inherit;rSize=5;perimeter=none;whiteSpace=wrap;resizeHeight=1;fontSize=14;" vertex="1" parent="56Pj80W0wNVNFjq7xBDU-4">
          <mxGeometry x="1" width="141" height="40" relative="1" as="geometry">
            <mxPoint x="-141" as="offset" />
          </mxGeometry>
        </mxCell>
        <mxCell id="56Pj80W0wNVNFjq7xBDU-8" value="MetaMask已连接" style="html=1;shadow=0;dashed=0;shape=mxgraph.bootstrap.rrect;rSize=5;strokeColor=none;strokeWidth=1;fillColor=#33A64C;fontColor=#FFFFFF;whiteSpace=wrap;align=center;verticalAlign=middle;spacingLeft=0;fontStyle=1;fontSize=14;spacing=5;" vertex="1" parent="1">
          <mxGeometry x="25" y="40" width="195" height="30" as="geometry" />
        </mxCell>
        <mxCell id="56Pj80W0wNVNFjq7xBDU-10" value="硬件钱包未连接" style="html=1;shadow=0;dashed=0;shape=mxgraph.bootstrap.rrect;rSize=5;strokeColor=none;strokeWidth=1;fillColor=#CCCCCC;fontColor=#000000;whiteSpace=wrap;align=center;verticalAlign=middle;spacingLeft=0;fontStyle=1;fontSize=14;spacing=5;" vertex="1" parent="1">
          <mxGeometry x="305" y="40" width="175" height="30" as="geometry" />
        </mxCell>
        <mxCell id="56Pj80W0wNVNFjq7xBDU-11" value="已连接显示绿色&lt;br&gt;未连接显示灰色" style="shape=note;whiteSpace=wrap;html=1;backgroundOutline=1;darkOpacity=0.05;fillColor=#fff2cc;strokeColor=#d6b656;" vertex="1" parent="1">
          <mxGeometry x="590" y="-20" width="170" height="50" as="geometry" />
        </mxCell>
        <mxCell id="56Pj80W0wNVNFjq7xBDU-13" value="" style="endArrow=classic;html=1;rounded=0;exitX=0.999;exitY=0.548;exitDx=0;exitDy=0;exitPerimeter=0;entryX=0;entryY=0.5;entryDx=0;entryDy=0;entryPerimeter=0;dashed=1;dashPattern=8 8;" edge="1" parent="1" source="56Pj80W0wNVNFjq7xBDU-10" target="56Pj80W0wNVNFjq7xBDU-11">
          <mxGeometry width="50" height="50" relative="1" as="geometry">
            <mxPoint x="610" y="190" as="sourcePoint" />
            <mxPoint x="660" y="140" as="targetPoint" />
          </mxGeometry>
        </mxCell>
        <mxCell id="56Pj80W0wNVNFjq7xBDU-14" value="" style="endArrow=classic;html=1;rounded=0;exitX=0.995;exitY=0.502;exitDx=0;exitDy=0;exitPerimeter=0;entryX=0;entryY=0.5;entryDx=0;entryDy=0;entryPerimeter=0;dashed=1;dashPattern=8 8;" edge="1" parent="1" source="56Pj80W0wNVNFjq7xBDU-8" target="56Pj80W0wNVNFjq7xBDU-11">
          <mxGeometry width="50" height="50" relative="1" as="geometry">
            <mxPoint x="230" y="40" as="sourcePoint" />
            <mxPoint x="280" y="-10" as="targetPoint" />
          </mxGeometry>
        </mxCell>
        <mxCell id="56Pj80W0wNVNFjq7xBDU-15" value="日志信息显示" style="html=1;shadow=0;dashed=0;shape=mxgraph.bootstrap.rrect;rSize=5;strokeColor=#999999;strokeWidth=1;fillColor=#FFFFFF;fontColor=#6C767D;whiteSpace=wrap;align=left;verticalAlign=middle;spacingLeft=10;fontSize=14;spacing=10;" vertex="1" parent="1">
          <mxGeometry x="25" y="150" width="455" height="160" as="geometry" />
        </mxCell>
        <mxCell id="56Pj80W0wNVNFjq7xBDU-16" value="清空日志信息" style="html=1;shadow=0;dashed=0;shape=mxgraph.bootstrap.rrect;rSize=5;strokeColor=none;strokeWidth=1;fillColor=#1CA5B8;fontColor=#FFFFFF;whiteSpace=wrap;align=center;verticalAlign=middle;spacingLeft=0;fontStyle=0;fontSize=16;spacing=5;" vertex="1" parent="1">
          <mxGeometry x="25" y="320" width="455" height="40" as="geometry" />
        </mxCell>
        <mxCell id="56Pj80W0wNVNFjq7xBDU-17" value="RelayServer 的显示界面" style="text;html=1;strokeColor=none;fillColor=none;align=center;verticalAlign=middle;whiteSpace=wrap;rounded=0;fontStyle=1;fontSize=15;" vertex="1" parent="1">
          <mxGeometry x="132.5" y="-40" width="240" height="30" as="geometry" />
        </mxCell>
      </root>
    </mxGraphModel>
  </diagram>
</mxfile>
